<?xml version="1.0" encoding="UTF-8"?>
<svg xmlns="http://www.w3.org/2000/svg"
    xmlns:xlink="http://www.w3.org/1999/xlink" viewBox="0 0 748.62 136">
    <defs>
        <style>.ae{fill:url(#t);}.af{fill:url(#v);}.ag{fill:url(#r);}.ah{fill:none;}.ai{fill:#8f9192;}.aj{fill:#182336;}.ak{clip-path:url(#u);}.al{clip-path:url(#s);}.am{clip-path:url(#q);}</style>
        <clipPath id="q">
            <path class="ah" d="M65.82,31.41c3.03,.68,6.03,1.65,8.98,2.95,24.66,10.83,35.88,39.6,25.05,64.26-5.08,11.58-14.13,20.2-24.84,24.96,27.67-3.4,49.1-26.99,49.1-55.58,0-7.4-1.44-14.47-4.05-20.94-7.38-9.27-18.13-15.88-30.76-17.82-2.5-.38-4.98-.57-7.43-.57-5.57,0-10.99,.96-16.06,2.74"/>
        </clipPath>
        <linearGradient id="r" x1="-1712.55" y1="-792.73" x2="-1711.3" y2="-792.73" gradientTransform="translate(59425.45 128198.9) rotate(90) scale(74.84 -74.84)" gradientUnits="userSpaceOnUse">
            <stop offset="0" stop-color="#1171c2"/>
            <stop offset=".2" stop-color="#2883ca"/>
            <stop offset=".53" stop-color="#499dd5"/>
            <stop offset=".81" stop-color="#5daedc"/>
            <stop offset="1" stop-color="#65b4df"/>
        </linearGradient>
        <clipPath id="s">
            <path class="ah" d="M24.26,33.17c-4.48,11.12-4.9,23.9-.21,35.95,2.27,5.83,5.55,10.98,9.55,15.32-.64-4.58-.63-9.33,.1-14.13,4.07-26.63,28.96-44.91,55.59-40.83,12.75,1.95,23.6,8.68,30.98,18.09-8.16-20.82-28.44-35.57-52.16-35.57-17.76,0-33.59,8.27-43.85,21.17"/>
        </clipPath>
        <linearGradient id="t" x1="-1745.25" y1="-792.63" x2="-1744.01" y2="-792.63" gradientTransform="translate(-132648.99 60346.81) rotate(-180) scale(76.07 -76.07)" gradientUnits="userSpaceOnUse">
            <stop offset="0" stop-color="#8f9192"/>
            <stop offset=".24" stop-color="#888a8b"/>
            <stop offset=".57" stop-color="#777a7a"/>
            <stop offset=".94" stop-color="#5b5e5e"/>
            <stop offset="1" stop-color="#565959"/>
        </linearGradient>
        <clipPath id="u">
            <path class="ah" d="M12.11,68c0,30.93,25.07,56,56,56,2.51,0,4.98-.16,7.4-.49,10.55-4.79,19.44-13.34,24.46-24.79,1.78-4.06,2.82-8.21,3.44-12.39-4.53,4.39-9.84,7.95-16.08,10.38-25.1,9.78-53.37-2.63-63.15-27.72-4.71-12.08-4.28-24.91,.25-36.05-7.71,9.6-12.33,21.79-12.33,35.06"/>
        </clipPath>
        <linearGradient id="v" x1="-1706.84" y1="-825.59" x2="-1705.59" y2="-825.59" gradientTransform="translate(124998.94 -60377.32) scale(73.23 -73.23)" gradientUnits="userSpaceOnUse">
            <stop offset="0" stop-color="#f1f1f1"/>
            <stop offset="1" stop-color="#bcbbba"/>
        </linearGradient>
    </defs>
    <g id="a">
        <g id="b"/>
        <g id="c">
            <g id="d"/>
            <g id="e"/>
        </g>
        <g id="f">
            <g id="g"/>
            <g id="h"/>
        </g>
        <g id="i">
            <g id="j"/>
        </g>
    </g>
    <g id="k">
        <g id="l">
            <g id="m"/>
            <g id="n">
                <g id="o">
                    <g id="p">
                        <g class="am">
                            <rect class="ag" x="58.02" y="24.33" width="73.89" height="103.59" transform="translate(-11.78 17.65) rotate(-10)"/>
                        </g>
                        <g class="al">
                            <rect class="ae" x="10.01" y="-3.07" width="119.61" height="102.59" transform="translate(-12.28 26.78) rotate(-20)"/>
                        </g>
                        <g class="ak">
                            <rect class="af" x="12.11" y="32.94" width="91.31" height="91.06"/>
                        </g>
                    </g>
                    <g id="w">
                        <g id="x">
                            <path class="aj" d="M147.23,100.9V35.1h27.07c5.83,0,10.82,.92,14.99,2.77,4.17,1.85,7.38,4.53,9.63,8.04,2.26,3.51,3.38,7.71,3.38,12.6s-1.13,8.96-3.38,12.41c-2.26,3.45-5.47,6.11-9.63,7.99-4.17,1.88-9.17,2.82-14.99,2.82h-20.21l5.36-5.45v24.63h-12.22Zm12.22-23.31l-5.36-5.92h19.65c5.39,0,9.45-1.16,12.17-3.48,2.73-2.32,4.09-5.55,4.09-9.68s-1.36-7.35-4.09-9.64c-2.73-2.29-6.78-3.43-12.17-3.43h-19.65l5.36-6.02v38.17Zm30.83,23.31l-16.64-23.88h13.07l16.73,23.88h-13.16Z"/>
                            <path class="aj" d="M206.64,100.9l29.61-65.8h12.03l29.7,65.8h-12.88l-25.38-59.31h4.89l-25.47,59.31h-12.5Zm13.63-15.23l3.38-9.59h35.44l3.29,9.59h-42.11Z"/>
                            <path class="aj" d="M286.35,100.9V35.1h28.86c7.02,0,13.24,1.36,18.66,4.09,5.42,2.73,9.64,6.57,12.64,11.51,3.01,4.95,4.51,10.72,4.51,17.3s-1.5,12.35-4.51,17.3-7.22,8.79-12.64,11.51c-5.42,2.73-11.64,4.09-18.66,4.09h-28.86Zm12.22-10.34h15.89c4.95,0,9.23-.94,12.83-2.82,3.6-1.88,6.42-4.51,8.46-7.9,2.04-3.38,3.05-7.33,3.05-11.84s-1.02-8.62-3.05-11.94c-2.04-3.32-4.86-5.92-8.46-7.8-3.6-1.88-7.88-2.82-12.83-2.82h-15.89v45.12Z"/>
                            <path class="aj" d="M363.99,100.9V35.1h12.22V100.9h-12.22Z"/>
                            <path class="aj" d="M424.43,101.84c-5.08,0-9.75-.83-14.01-2.49-4.26-1.66-7.98-4.03-11.14-7.1-3.17-3.07-5.63-6.64-7.38-10.72-1.75-4.07-2.63-8.58-2.63-13.54s.88-9.46,2.63-13.54c1.75-4.07,4.23-7.65,7.43-10.72,3.2-3.07,6.92-5.44,11.19-7.1,4.26-1.66,8.93-2.49,14.01-2.49,5.39,0,10.31,.93,14.76,2.77,4.45,1.85,8.21,4.59,11.28,8.22l-7.9,7.43c-2.44-2.57-5.14-4.5-8.08-5.78-2.95-1.28-6.11-1.93-9.49-1.93s-6.6,.56-9.45,1.69c-2.85,1.13-5.33,2.73-7.43,4.79-2.1,2.07-3.75,4.51-4.94,7.33s-1.79,5.92-1.79,9.31,.59,6.49,1.79,9.31c1.19,2.82,2.83,5.26,4.94,7.33,2.1,2.07,4.57,3.67,7.43,4.79,2.85,1.13,6,1.69,9.45,1.69s6.55-.64,9.49-1.93c2.94-1.28,5.64-3.24,8.08-5.88l7.9,7.43c-3.07,3.64-6.83,6.39-11.28,8.27-4.45,1.88-9.4,2.82-14.85,2.82Z"/>
                            <path class="aj" d="M451.6,100.9l29.61-65.8h12.03l29.7,65.8h-12.88l-25.38-59.31h4.89l-25.47,59.31h-12.5Zm13.63-15.23l3.38-9.59h35.44l3.29,9.59h-42.11Z"/>
                            <path class="aj" d="M531.31,100.9V35.1h12.22v55.46h34.4v10.34h-46.62Z"/>
                        </g>
                        <g id="y">
                            <path class="ai" d="M587.61,100.9V35.1h30.93c7.83,0,13.82,1.55,17.95,4.65,4.14,3.1,6.2,7.25,6.2,12.46,0,3.51-.82,6.5-2.44,8.98-1.63,2.48-3.81,4.39-6.53,5.73-2.73,1.35-5.69,2.02-8.88,2.02l1.69-3.38c3.7,0,7.02,.67,9.96,2.02,2.95,1.35,5.26,3.31,6.96,5.88,1.69,2.57,2.54,5.77,2.54,9.59,0,5.64-2.15,10.03-6.44,13.16-4.29,3.13-10.67,4.7-19.13,4.7h-32.81Zm12.22-9.59h19.83c4.51,0,7.99-.75,10.43-2.26,2.44-1.5,3.67-3.92,3.67-7.24s-1.22-5.65-3.67-7.19c-2.44-1.53-5.92-2.3-10.43-2.3h-20.77v-9.49h18.24c4.2,0,7.46-.75,9.78-2.26,2.32-1.5,3.48-3.76,3.48-6.77s-1.16-5.36-3.48-6.86c-2.32-1.5-5.58-2.26-9.78-2.26h-17.3v46.62Z"/>
                            <path class="ai" d="M659.15,100.9V35.1h12.22V100.9h-12.22Z"/>
                            <path class="ai" d="M702.48,100.9V45.44h-21.81v-10.34h55.84v10.34h-21.81v55.46h-12.22Z"/>
                        </g>
                    </g>
                </g>
            </g>
        </g>
        <g id="a`">
            <g id="aa"/>
            <g id="ab"/>
        </g>
        <g id="ac">
            <g id="ad"/>
        </g>
    </g>
</svg>