<svg width="1714" height="94" viewBox="0 0 1714 94" fill="none" xmlns="http://www.w3.org/2000/svg">
<path d="M0 0V53.6772C309 14 656.34 70.1205 892.322 85.069C1081.11 97.0278 1518.77 50.5214 1714 25.7734V0H0Z" fill="#1b1b1d"/>
<path d="M0 41.9662V9.2193C579.169 -0.207816 351.603 47.4241 846.247 69.7515C1340.89 92.079 1366 23.5 1714 10.2116V41.9662C1579.63 56.0243 1272.37 85.7281 1118.33 92.079C925.77 100.018 522.152 54.3704 455.133 41.9662C401.517 32.0429 129.371 37.8315 0 41.9662Z" fill="#C9DCEE"/>
<path d="M0 26V53.5C35.3746 53.5 210.746 48.5 298.849 48.5C477.557 48.5 751.377 94 1103.29 94C1205.91 94 1500.58 63.6667 1714 48.5V26.5C1711.5 26 1630.56 32 1579.5 39C1528.44 46 1369.6 82.9858 1103.29 90C836.977 97.0142 533.122 19 246.287 19C185.369 19 56.7329 22.6667 0 26Z" fill="#739CD1"/>
</svg>
