<?xml version="1.0" encoding="UTF-8"?><svg xmlns="http://www.w3.org/2000/svg" xmlns:xlink="http://www.w3.org/1999/xlink" viewBox="0 0 294 294"><defs><style>.aa{fill:url(#u);}.ab{fill:url(#w);}.ac{fill:url(#y);}.ad{fill:none;}.ae{clip-path:url(#v);}.af{clip-path:url(#t);}.ag{clip-path:url(#x);}</style><clipPath id="t"><path class="ad" d="M141.46,58.79c7.3,1.63,14.55,3.99,21.65,7.11,59.46,26.1,86.5,95.46,60.4,154.92-12.26,27.92-34.05,48.69-59.89,60.17,66.72-8.19,118.37-65.06,118.37-133.99,0-17.85-3.46-34.89-9.76-50.49-17.79-22.34-43.71-38.29-74.15-42.95-6.02-.92-12.01-1.37-17.92-1.37-13.44,0-26.49,2.31-38.7,6.6"/></clipPath><linearGradient id="u" x1="-4996.22" y1="-1166.34" x2="-4993.21" y2="-1166.34" gradientTransform="translate(87504.41 373979.15) rotate(90) scale(74.84 -74.84)" gradientUnits="userSpaceOnUse"><stop offset="0" stop-color="#1171c2"/><stop offset=".2" stop-color="#2883ca"/><stop offset=".53" stop-color="#499dd5"/><stop offset=".81" stop-color="#5daedc"/><stop offset="1" stop-color="#65b4df"/></linearGradient><clipPath id="v"><path class="ad" d="M41.28,63.04c-10.81,26.8-11.82,57.62-.5,86.67,5.48,14.06,13.38,26.47,23.02,36.94-1.54-11.04-1.53-22.49,.24-34.07,9.82-64.19,69.82-108.25,134.01-98.43,30.75,4.7,56.88,20.93,74.69,43.61C253.06,47.55,204.18,12,147,12c-42.82,0-80.99,19.94-105.72,51.04"/></clipPath><linearGradient id="w" x1="-5083.14" y1="-1189.01" x2="-5080.13" y2="-1189.01" gradientTransform="translate(-386424.54 90552.21) rotate(-180) scale(76.07 -76.07)" gradientUnits="userSpaceOnUse"><stop offset="0" stop-color="#8f9192"/><stop offset=".24" stop-color="#888a8b"/><stop offset=".57" stop-color="#777a7a"/><stop offset=".94" stop-color="#5b5e5e"/><stop offset="1" stop-color="#565959"/></linearGradient><clipPath id="x"><path class="ad" d="M12,147c0,74.56,60.44,135,135,135,6.05,0,12.01-.4,17.85-1.17,25.43-11.56,46.86-32.17,58.98-59.75,4.3-9.79,6.8-19.79,8.3-29.88-10.91,10.58-23.71,19.15-38.76,25.02-60.5,23.59-128.66-6.34-152.25-66.84-11.36-29.13-10.31-60.04,.59-86.9-18.59,23.13-29.72,52.52-29.72,84.51"/></clipPath><linearGradient id="y" x1="-4959.14" y1="-1249.93" x2="-4956.14" y2="-1249.93" gradientTransform="translate(363156.33 -91356.54) scale(73.23 -73.23)" gradientUnits="userSpaceOnUse"><stop offset="0" stop-color="#f1f1f1"/><stop offset="1" stop-color="#bcbbba"/></linearGradient></defs><g id="a"><g id="b"/><g id="c"><g id="d"/><g id="e"/></g><g id="f"><g id="g"/><g id="h"/></g><g id="i"><g id="j"/></g></g><g id="k"><g id="l"><g id="m"/><g id="n"/></g><g id="o"><g id="p"/><g id="q"/></g><g id="r"><g id="s"><g class="af"><rect class="aa" x="122.67" y="41.73" width="178.13" height="249.72" transform="translate(-25.71 39.3) rotate(-10)"/></g><g class="ae"><rect class="ab" x="6.93" y="-24.34" width="288.34" height="247.32" transform="translate(-24.86 57.67) rotate(-20)"/></g><g class="ag"><rect class="ac" x="12" y="62.49" width="220.13" height="219.51"/></g></g><g id="a`"/></g></g></svg>